<svg width="180" height="80" viewBox="0 0 180 80" fill="none" xmlns="http://www.w3.org/2000/svg">
<path d="M180 0H0V80H180V0Z" fill="white"/>
<path d="M50.8172 34.5016C50.7617 34.4285 50.6986 34.39 50.6283 34.39C50.5766 34.392 50.5265 34.4086 50.4837 34.4377C49.9511 34.8562 49.2223 36.6277 48.625 38.9626L49.1537 38.9687C50.1981 38.9803 51.2763 38.9928 52.3425 39.0088C52.0613 37.9393 51.7957 37.0229 51.5523 36.2827C51.1964 35.2016 50.9561 34.7173 50.8172 34.5016Z" fill="#485B60"/>
<path d="M52.0032 30C46.4788 30 42.0005 34.4771 42.0005 40C42.0005 45.5229 46.4788 50 52.0032 50C57.5275 50 62.0058 45.5229 62.0058 40C62.0058 34.4771 57.5271 30 52.0032 30ZM59.1938 40.1815L59.1914 40.1835C59.1806 40.1924 59.1697 40.2004 59.1581 40.2084L59.1468 40.2161L59.1235 40.2301L59.1019 40.2426C59.0259 40.2824 58.9414 40.3032 58.8556 40.3032H54.1178C54.1555 40.4602 54.1981 40.6386 54.2419 40.8325C54.5014 41.9542 55.1916 44.9337 55.9243 44.9337H55.94H55.948H55.9621C56.5345 44.9337 56.8265 44.1064 57.4669 42.2936L57.4745 42.2715C57.5773 41.9803 57.6934 41.6518 57.8192 41.3044L57.8513 41.2157C57.8703 41.1656 57.9062 41.1237 57.9529 41.0973C57.9995 41.0709 58.0539 41.0617 58.1067 41.0712C58.1594 41.0808 58.2072 41.1085 58.2416 41.1495C58.276 41.1906 58.295 41.2424 58.2952 41.296C58.2951 41.3183 58.2919 41.3405 58.2856 41.3618L58.2591 41.451C58.1924 41.6667 58.1213 41.9606 58.0393 42.3008C57.6577 43.8819 57.0812 46.2707 55.6021 46.2707H55.5913C54.6356 46.2631 54.0648 44.7357 53.8193 44.0835C53.3626 42.8639 53.0159 41.5643 52.6837 40.3056H48.3211L47.4156 43.2008L47.4023 43.1904C47.349 43.2744 47.2699 43.339 47.1768 43.3743C47.0837 43.4096 46.9817 43.4138 46.886 43.3863C46.7904 43.3587 46.7062 43.3009 46.6462 43.2215C46.5861 43.1421 46.5535 43.0453 46.5531 42.9458V42.9301L46.6077 42.6024C46.7327 41.8578 46.8825 41.0851 47.0536 40.304H45.2142L45.2074 40.2972C45.0432 40.2719 44.8934 40.1888 44.785 40.0629C44.6767 39.937 44.6169 39.7765 44.6164 39.6104C44.6156 39.4481 44.6719 39.2907 44.7757 39.1658C44.8794 39.0409 45.0239 38.9566 45.1837 38.9277C45.2552 38.9201 45.3271 38.9171 45.399 38.9185C45.4255 38.9185 45.4552 38.9185 45.4886 38.9185C46.0723 38.9285 46.6937 38.9378 47.371 38.9466C48.3323 35.0414 49.4459 33.059 50.6811 33.0534C52.0068 33.0534 52.9898 36.0703 53.7767 39.0217L53.7799 39.0333C55.3968 39.0659 57.1202 39.1137 58.7957 39.2341L58.866 39.2406C58.893 39.2411 58.9198 39.2435 58.9464 39.2478H58.956L58.9645 39.2498H58.9689C59.0673 39.2698 59.158 39.3172 59.2304 39.3867C59.3029 39.4562 59.3541 39.5449 59.3781 39.6424C59.4021 39.7398 59.3979 39.8421 59.366 39.9373C59.3341 40.0324 59.2758 40.1166 59.1979 40.1799L59.1938 40.1815Z" fill="#485B60"/>
<path d="M67.5563 42.502L66.7633 44.461H64.4595L68.843 34.2317H70.8777L75.2459 44.4614H72.9561L72.1631 42.5024H67.5563V42.502ZM69.8461 36.8189L68.3501 40.543H71.3718L69.8461 36.8189Z" fill="#485B60"/>
<path d="M88.2305 40.5281V44.4614H86.1513V40.7076C86.1513 39.5711 85.5977 38.9578 84.6248 38.9578C84.1909 38.9578 83.7121 39.1522 83.2782 39.7506C83.3137 40.0083 83.3337 40.268 83.3381 40.5281V44.4614H81.2596V40.7076C81.2596 39.5711 80.706 38.9578 79.7186 38.9578C79.3169 38.9578 78.8658 39.1988 78.4472 39.7655V44.4614H76.3679V37.2976H78.4472V37.7313C78.8959 37.3124 79.3747 37.0731 80.2123 37.0731C81.125 37.0731 81.9325 37.4321 82.5021 38.09C83.2653 37.3871 83.9832 37.0731 85.1052 37.0731C86.8543 37.0731 88.2305 38.4341 88.2305 40.5281Z" fill="#485B60"/>
<path d="M97.3707 40.8868C97.3707 42.9655 95.7852 44.6104 93.8103 44.6104C93.0025 44.6104 92.3292 44.4012 91.7761 44.0422V47.9157H89.6968V37.2972H91.7761V37.7161C92.3296 37.357 93.0029 37.1478 93.8103 37.1478C95.7848 37.1482 97.3707 38.7783 97.3707 40.8868ZM95.322 40.8868C95.322 39.8249 94.5443 38.8976 93.4669 38.8976C92.8535 38.8976 92.24 39.1068 91.7765 39.7349V42.0241C92.24 42.6374 92.8535 42.8466 93.4669 42.8466C94.5447 42.8454 95.3212 41.9337 95.3212 40.8868H95.322Z" fill="#485B60"/>
<path d="M100.616 44.4611H98.5371V33.843H100.616V44.4611Z" fill="#485B60"/>
<path d="M102.487 34.7703C102.487 34.0675 103.04 33.5438 103.743 33.5438C104.431 33.5438 104.985 34.0659 104.985 34.7703C104.985 35.4582 104.431 35.9667 103.743 35.9667C103.04 35.9667 102.487 35.4582 102.487 34.7703ZM104.79 37.2976V44.4614H102.711V37.2976H104.79Z" fill="#485B60"/>
<path d="M112.344 44.3566C111.477 44.6257 111.088 44.6856 110.416 44.6856C108.681 44.6856 107.544 43.459 107.544 41.6048V39.0474H106.034V37.2976H107.545V34.7402H109.609V37.2976H112.197V39.0474H109.609V41.59C109.609 42.3976 110.103 42.7715 110.865 42.7715C111.254 42.7715 111.673 42.6819 112.077 42.5771L112.344 44.3566Z" fill="#485B60"/>
<path d="M120.692 44.461H118.613V43.9526C118.029 44.4161 117.371 44.6855 116.564 44.6855C114.679 44.6855 113.422 43.3245 113.422 41.2458V37.2976H115.502V41.0514C115.502 42.1879 116.07 42.8012 117.043 42.8012C117.565 42.8012 118.134 42.4871 118.613 41.904V37.2976H120.693L120.692 44.461Z" fill="#485B60"/>
<path d="M129.518 44.4611H127.439V44.0422C126.885 44.4012 126.212 44.6104 125.404 44.6104C123.43 44.6104 121.829 42.9803 121.829 40.8715C121.829 38.7928 123.43 37.1474 125.404 37.1474C126.212 37.1474 126.885 37.3566 127.439 37.7157V33.843H129.518V44.4611ZM127.439 42.0237V39.7345C126.975 39.1213 126.362 38.9121 125.748 38.9121C124.656 38.9121 123.893 39.8245 123.893 40.8711C123.893 41.9329 124.656 42.8602 125.748 42.8602C126.36 42.8611 126.975 42.6518 127.439 42.0237Z" fill="#485B60"/>
<path d="M137.955 41.4104H132.675C132.839 42.2478 133.393 42.906 134.53 42.906C135.113 42.906 135.517 42.7265 135.741 42.3675H137.911C137.522 43.7434 136.175 44.6855 134.485 44.6855C132.181 44.6855 130.625 43.0257 130.625 40.8867C130.625 38.6735 132.166 37.0715 134.425 37.0715C136.474 37.0715 138 38.5221 138 40.7357C138.003 40.9615 137.988 41.1871 137.955 41.4104ZM132.689 40.1839H135.936C135.815 39.2867 135.277 38.7932 134.44 38.7932C133.437 38.7932 132.884 39.3763 132.689 40.1839Z" fill="#485B60"/>
</svg>
