<svg width="99" height="89" viewBox="0 0 99 89" fill="none" xmlns="http://www.w3.org/2000/svg">
<g clip-path="url(#clip0_2_2105)">
<path d="M128.5 -168L134.95 -111.17L151.445 -165.935L147.644 -108.867L173.652 -159.806L159.722 -104.334L194.408 -149.811L170.797 -97.7169L213.045 -136.27L180.512 -89.2289L228.965 -119.618L188.556 -79.1425L241.657 -100.392L194.669 -67.7821L250.711 -79.2087L198.656 -55.5126L255.837 -56.749L200.388 -42.7285L256.871 -33.7349L199.809 -29.8406L253.778 -10.9061L196.938 -17.2631L246.659 11.0037L191.868 -5.40039L235.743 31.2903L184.761 5.3663L221.379 49.3015L175.845 14.691L204.03 64.459L165.408 22.274L184.254 76.275L153.785 27.8715L162.686 84.369L141.349 31.3036L140.019 88.483L128.5 32.46L116.981 88.483L115.651 31.3036L94.3143 84.369L103.215 27.8715L72.7459 76.275L91.5918 22.274L52.9696 64.459L81.1547 14.691L35.6209 49.3015L72.2394 5.3663L21.2573 31.2903L65.1323 -5.40039L10.3407 11.0037L60.062 -17.2631L3.22176 -10.9061L57.1913 -29.8406L0.129395 -33.7349L56.6125 -42.7285L1.16296 -56.749L58.3442 -55.5126L6.28924 -79.2087L62.3308 -67.7821L15.3435 -100.392L68.4441 -79.1425L28.0347 -119.618L76.4877 -89.2289L43.9549 -136.27L86.203 -97.7169L62.5924 -149.811L97.2777 -104.334L83.3483 -159.806L109.356 -108.867L105.555 -165.935L122.05 -111.17L128.5 -168Z" fill="#CBC7B5"/>
</g>
<defs>
<clipPath id="clip0_2_2105">
<rect width="138" height="128" fill="white" transform="translate(0 -39)"/>
</clipPath>
</defs>
</svg>
