<svg width="126" height="126" viewBox="0 0 126 126" fill="none" xmlns="http://www.w3.org/2000/svg">
<path d="M63 0L68.4699 31.9786L84.5472 3.79937L78.75 35.7202L103.496 14.7392L87.1304 42.7522L117.56 31.5L92.6003 52.2264L125.043 52.0602L94.5 63L125.043 73.9398L92.6003 73.7736L117.56 94.5L87.1304 83.2478L103.496 111.261L78.75 90.2798L84.5472 122.201L68.4699 94.0214L63 126L57.5301 94.0214L41.4528 122.201L47.25 90.2798L22.5044 111.261L38.8696 83.2478L8.44039 94.5L33.3997 73.7736L0.957108 73.9398L31.5 63L0.957108 52.0602L33.3997 52.2264L8.44039 31.5L38.8696 42.7522L22.5044 14.7392L47.25 35.7202L41.4528 3.79937L57.5301 31.9786L63 0Z" fill="#ECE8D9"/>
</svg>
