<svg width="32" height="32" viewBox="0 0 32 32" fill="none" xmlns="http://www.w3.org/2000/svg">
<path d="M17.3004 28.25H14.6996C14.3544 28.25 14.0746 28.5299 14.0746 28.875C14.0746 29.2201 14.3544 29.5 14.6996 29.5H17.3004C17.6456 29.5 17.9254 29.2201 17.9254 28.875C17.9254 28.5299 17.6456 28.25 17.3004 28.25Z" fill="#9F9B8D"/>
<path d="M28.5 5.00006H24.75V3.6425C25.4774 3.3845 26 2.68981 26 1.875C26 0.841125 25.1589 0 24.125 0H7.875C6.84113 0 6 0.841125 6 1.87506C6 2.68981 6.52256 3.3845 7.25 3.6425V5.00006H3.5C3.15481 5.00006 2.875 5.27994 2.875 5.62506V10.0001C2.875 12.7571 5.118 15.0001 7.875 15.0001H8.40344C8.52356 15.2094 8.65194 15.4151 8.79012 15.6156C9.67481 16.8997 10.8688 17.9151 12.2633 18.5776C12.2548 18.6496 12.25 18.7228 12.25 18.797C12.25 19.6727 12.8536 20.4099 13.6664 20.6151C12.9154 23.1173 11.5809 25.75 10 25.75H8.5C8.18481 25.75 7.91894 25.9847 7.87981 26.2975L7.25481 31.2975C7.23256 31.4754 7.28781 31.6543 7.40644 31.7886C7.52506 31.923 7.69575 32 7.875 32H24.125C24.3043 32 24.4749 31.9231 24.5936 31.7886C24.7122 31.6543 24.7674 31.4753 24.7452 31.2975L24.1202 26.2975C24.0811 25.9847 23.8153 25.75 23.5 25.75H22C21.0432 25.75 20.2348 24.7453 19.7251 23.9024C19.0701 22.8193 18.6126 21.5434 18.3337 20.6149C19.1466 20.4098 19.75 19.6726 19.75 18.7969C19.75 18.7227 19.7452 18.6496 19.7367 18.5776C21.1314 17.9149 22.3256 16.8994 23.2103 15.615C23.3483 15.4146 23.4766 15.2093 23.5966 15.0001H24.125C26.882 15.0001 29.125 12.7571 29.125 10.0001V5.62506C29.125 5.27994 28.8452 5.00006 28.5 5.00006ZM4.125 10.0001V6.25006H7.25V10.6719C7.25 11.7332 7.4425 12.7716 7.81231 13.7485C5.77344 13.7148 4.125 12.0468 4.125 10.0001ZM23.417 30.75H8.583L9.05175 27H22.9482L23.417 30.75ZM19.5361 25.75H12.4639C12.7676 25.4171 13.0605 25.0184 13.3418 24.5539C14.1406 23.2346 14.6651 21.6801 14.9519 20.6719H17.0482C17.3352 21.6812 17.8586 23.2317 18.6554 24.5492C18.9376 25.0157 19.2314 25.416 19.5361 25.75ZM17.875 19.4219H14.125C13.7804 19.4219 13.5 19.1416 13.5 18.7969C13.5 18.4523 13.7804 18.1719 14.125 18.1719H17.875C18.2196 18.1719 18.5 18.4523 18.5 18.7969C18.5 19.1416 18.2196 19.4219 17.875 19.4219ZM19.1842 17.4565C18.8461 17.1261 18.384 16.9219 17.875 16.9219H14.125C13.616 16.9219 13.154 17.1261 12.8158 17.4565C10.1807 16.2157 8.5 13.5976 8.5 10.6719V3.75H13.1873C13.5325 3.75 13.8123 3.47012 13.8123 3.125C13.8123 2.77988 13.5325 2.5 13.1873 2.5H7.875C7.53038 2.5 7.25 2.21962 7.25 1.875C7.25 1.53038 7.53038 1.25 7.875 1.25H24.125C24.4696 1.25 24.75 1.53038 24.75 1.87506C24.75 2.21969 24.4696 2.5 24.125 2.5H18.8123C18.4671 2.5 18.1873 2.77988 18.1873 3.125C18.1873 3.47012 18.4671 3.75 18.8123 3.75H23.5V10.6719C23.5 13.5974 21.8192 16.2157 19.1842 17.4565ZM27.875 10.0001C27.875 12.0468 26.2266 13.7148 24.1877 13.7485C24.5575 12.7716 24.75 11.7332 24.75 10.6719V6.25006H27.875V10.0001Z" fill="#9F9B8D"/>
<path d="M19.1931 8.14984L17.7914 7.90153L17.0952 6.62096C17.0952 6.6209 17.0952 6.62078 17.0951 6.62071C16.9783 6.40603 16.8024 6.23171 16.5864 6.11659C16.2924 5.95978 15.9549 5.9269 15.6361 6.02384C15.3173 6.1209 15.0554 6.33628 14.8984 6.63053L14.2292 7.88684L12.8234 8.14815C12.5715 8.18859 12.3412 8.30346 12.1566 8.4809C11.9163 8.71209 11.7804 9.02296 11.7739 9.3564C11.7674 9.68978 11.8912 10.0058 12.1229 10.2465L13.1116 11.272L12.9302 12.655C12.8816 12.919 12.9179 13.1855 13.0358 13.4277C13.1819 13.7278 13.4362 13.953 13.7517 14.0618C13.8853 14.1079 14.0231 14.1308 14.1604 14.1308C14.3473 14.1308 14.5333 14.0883 14.7063 14.0042L15.9854 13.3815L17.3018 14.0087C17.5216 14.1136 17.7667 14.1512 18.0106 14.1174C18.341 14.0718 18.6337 13.9001 18.8351 13.6342C19.0363 13.3683 19.122 13.0399 19.0762 12.7087L18.8791 11.2982L19.8457 10.2786C20.0368 10.094 20.1618 9.85821 20.2077 9.5954C20.3261 8.91665 19.8703 8.26809 19.1931 8.14984ZM18.9496 9.4069L17.7648 10.6565C17.6339 10.7945 17.5731 10.9847 17.5994 11.173L17.8397 12.8803L16.2511 12.1236C16.0794 12.0418 15.8798 12.0426 15.7087 12.1259L14.1596 12.881C14.1626 12.8662 14.1651 12.8513 14.1671 12.8363L14.3901 11.1362C14.4148 10.9476 14.3523 10.758 14.2203 10.6212L13.0217 9.38228C13.0287 9.38121 13.0358 9.38003 13.0428 9.37871L14.7533 9.06084C14.9403 9.02603 15.1013 8.90809 15.1907 8.74021L15.9982 7.2204L16.8368 8.76309C16.9276 8.93015 17.0896 9.04684 17.2769 9.07996L18.9767 9.3799C18.9674 9.38859 18.9583 9.39759 18.9496 9.4069Z" fill="#9F9B8D"/>
<path d="M16 3.75C16.3452 3.75 16.625 3.47012 16.625 3.125C16.625 2.77988 16.3452 2.5 16 2.5H15.9996C15.6544 2.5 15.3748 2.77988 15.3748 3.125C15.3748 3.47012 15.6548 3.75 16 3.75Z" fill="#9F9B8D"/>
</svg>
