<svg width="32" height="32" viewBox="0 0 32 32" fill="none" xmlns="http://www.w3.org/2000/svg">
<path d="M30.9771 22.059L28.7358 25.941C28.6024 26.1719 28.3193 26.2694 28.0721 26.1696L24.7729 24.8378C24.4989 24.7272 24.3664 24.4154 24.477 24.1414C24.5876 23.8673 24.8994 23.7348 25.1735 23.8455L28.0415 25.0033L29.8178 21.9266L27.3842 20.0241C27.2095 19.8876 27.1372 19.6575 27.2022 19.4455C27.8763 17.2512 27.902 14.8327 27.2022 12.5546C27.1372 12.3427 27.2095 12.1126 27.3842 11.976L29.8178 10.0736L28.0415 6.99687L25.1735 8.15462C24.9678 8.23775 24.7324 8.18525 24.5814 8.02286C22.9706 6.29091 20.9085 5.09925 18.618 4.57663C18.4016 4.52727 18.2381 4.34942 18.2072 4.12958L17.7763 1.07013H14.2237L13.7928 4.12944C13.7618 4.34922 13.5984 4.52707 13.382 4.57649C11.0915 5.09912 9.02936 6.29085 7.41861 8.02272C7.26759 8.18512 7.03216 8.23762 6.82649 8.15448L3.95847 6.99673L2.18211 10.0734L4.61573 11.9759C4.79043 12.1124 4.86273 12.3425 4.79765 12.5545C4.1236 14.7488 4.09785 17.1673 4.79765 19.4454C4.86273 19.6573 4.79043 19.8874 4.61573 20.024L2.18211 21.9264L3.95847 25.0031L6.82649 23.8454C7.03216 23.7622 7.26765 23.8148 7.41861 23.9771C9.02936 25.7091 11.0915 26.9007 13.382 27.4234C13.5984 27.4727 13.7618 27.6506 13.7928 27.8704L14.2237 30.9297H17.7763L18.2072 27.8704C18.2381 27.6506 18.4016 27.4728 18.618 27.4234C19.8722 27.1372 21.0644 26.6474 22.1612 25.9677C22.4127 25.8122 22.7423 25.8897 22.8979 26.1408C23.0535 26.392 22.9761 26.7218 22.7249 26.8775C21.6329 27.5541 20.4541 28.0584 19.2163 28.379L18.7712 31.5394C18.734 31.8034 18.508 31.9999 18.2414 31.9999H13.7588C13.4921 31.9999 13.2661 31.8034 13.2289 31.5394L12.7838 28.379C10.546 27.7999 8.52165 26.6301 6.89097 24.9734L3.92797 26.1694C3.6807 26.2694 3.39765 26.1718 3.26428 25.9408L1.02296 22.0588C0.889597 21.8278 0.946715 21.534 1.15679 21.3697L3.67127 19.404C3.05956 17.1843 3.05942 14.8159 3.67127 12.5956L1.15679 10.6299C0.946715 10.4656 0.889597 10.1718 1.02296 9.9408L3.26428 6.05876C3.39765 5.82781 3.68063 5.7303 3.92797 5.83015L6.89097 7.02623C8.52165 5.36953 10.546 4.19967 12.7838 3.6206L13.2289 0.460157C13.266 0.196436 13.492 0 13.7587 0H18.2413C18.5079 0 18.7339 0.196436 18.7711 0.460425L19.2162 3.62086C21.454 4.19994 23.4784 5.3698 25.1091 7.0265L28.0721 5.83042C28.3194 5.7307 28.6025 5.82801 28.7358 6.05903L30.9771 9.94107C31.1104 10.172 31.0533 10.4659 30.8432 10.6302L28.3288 12.5959C28.9405 14.8156 28.9406 17.184 28.3288 19.4043L30.8432 21.37C31.0533 21.5342 31.1104 21.828 30.9771 22.059ZM15.1235 18.5453L17.7989 13.9973C17.9487 13.7425 17.8637 13.4146 17.609 13.2648C17.3543 13.115 17.0263 13.2 16.8765 13.4547L14.2011 18.0027C14.0513 18.2575 14.1363 18.5854 14.391 18.7352C14.6458 18.885 14.9738 18.8 15.1235 18.5453ZM13.0342 13.9488C12.8253 13.74 12.4865 13.7399 12.2775 13.9488L10.6046 15.6217C10.3958 15.8306 10.3957 16.1694 10.6046 16.3784L12.2775 18.0513C12.4865 18.2602 12.8252 18.2602 13.0342 18.0513C13.2432 17.8423 13.2432 17.5035 13.0342 17.2946L11.7396 16.0001L13.0342 14.7056C13.2432 14.4966 13.2432 14.1578 13.0342 13.9488ZM19.2773 18.208C19.4142 18.208 19.5512 18.1558 19.6557 18.0513L21.3286 16.3783C21.5374 16.1694 21.5375 15.8306 21.3286 15.6216L19.6557 13.9487C19.4467 13.7398 19.108 13.7398 18.899 13.9487C18.69 14.1577 18.69 14.4965 18.899 14.7054L20.1935 15.9999L18.899 17.2944C18.5608 17.6328 18.8049 18.208 19.2773 18.208ZM12.8687 24.5402C13.89 24.9146 14.9489 25.1011 16.0052 25.101C22.6149 25.1006 27.0448 18.199 24.2528 12.175C22.1438 7.62457 16.7258 5.63813 12.175 7.7471C6.38968 10.4285 5.07797 18.1377 9.70502 22.5692C9.91845 22.7737 10.2572 22.7664 10.4616 22.5529C10.6659 22.3396 10.6587 22.0008 10.4452 21.7964C6.36526 17.8887 7.5176 11.0851 12.625 8.71804C16.6404 6.85715 21.4209 8.60976 23.2818 12.625C25.1428 16.6402 23.3901 21.4209 19.3748 23.2819C17.4297 24.1834 15.2499 24.2734 13.2369 23.5354C12.9595 23.4338 12.652 23.5762 12.5503 23.8536C12.4487 24.1311 12.5912 24.4385 12.8687 24.5402Z" fill="#CBC7B5"/>
</svg>
