<svg width="180" height="80" viewBox="0 0 180 80" fill="none" xmlns="http://www.w3.org/2000/svg">
<path d="M180 0H0V80H180V0Z" fill="white"/>
<path fill-rule="evenodd" clip-rule="evenodd" d="M61.0034 32.0126L41.129 39.9324C41.0891 39.949 41.0558 39.9784 41.0343 40.0159C41.0117 40.0498 40.9998 40.0897 41 40.1304C40.9996 40.1712 41.0116 40.2112 41.0343 40.245C41.0572 40.2794 41.0903 40.3058 41.129 40.3202L47.0298 42.4524C47.0614 42.4651 47.0958 42.469 47.1294 42.4638C47.1624 42.4586 47.1937 42.4457 47.2209 42.4262L58.4148 34.2544C58.4176 34.2532 58.4207 34.2525 58.4238 34.2525C58.4269 34.2525 58.4299 34.2532 58.4328 34.2544C58.439 34.256 58.4447 34.2594 58.4491 34.2642C58.4502 34.2668 58.4507 34.2696 58.4507 34.2724C58.4507 34.2752 58.4502 34.278 58.4491 34.2806C58.4514 34.2863 58.4514 34.2928 58.4491 34.2986L48.5405 42.9335C48.5176 42.9534 48.4993 42.9779 48.4866 43.0055C48.4747 43.0333 48.4691 43.0635 48.4703 43.0938V47.6919C48.4691 47.7335 48.4817 47.7744 48.5062 47.8081C48.5307 47.8423 48.5648 47.8685 48.6042 47.8833C48.6436 47.8974 48.6864 47.8986 48.7266 47.8868C48.7668 47.8751 48.8022 47.851 48.8279 47.8179L51.6877 44.2867C51.7143 44.2544 51.7502 44.231 51.7905 44.2196C51.8309 44.2065 51.8743 44.2065 51.9147 44.2196L55.56 45.5434C55.6081 45.563 55.6621 45.563 55.7102 45.5434C55.7575 45.5216 55.7953 45.4832 55.8164 45.4354L61.268 32.2777C61.2826 32.2414 61.286 32.2015 61.2778 32.1632C61.2709 32.124 61.2521 32.088 61.2239 32.0601C61.1966 32.0312 61.1613 32.0113 61.1226 32.0028C61.0838 31.9944 61.0435 31.9978 61.0067 32.0126" fill="#485B60"/>
<path d="M67.2847 33.6085H65.4882L65.5143 44.5719H67.3108L67.2847 33.6085Z" fill="#485B60"/>
<path d="M72.9404 36.6832C72.0324 36.6832 71.2011 37.0104 70.6801 37.665V36.8468H68.9865L69.006 44.5703H70.6997L70.6866 39.4567C70.8446 39.0877 71.1087 38.7742 71.4452 38.5562C71.7818 38.3382 72.1755 38.2256 72.5762 38.2328C73.6541 38.2328 74.2715 39.0002 74.2747 40.2209L74.2845 44.5703H75.9782L75.9667 39.9509C75.9667 37.9546 74.7876 36.6897 72.9404 36.6946" fill="#485B60"/>
<path d="M82.9748 36.8141L80.6296 42.227L78.2761 36.8271H76.3979L79.8963 44.5424H81.3906L84.8645 36.8091L82.9748 36.8141Z" fill="#485B60"/>
<path d="M89.0683 36.6455C88.0813 36.6619 87.1356 37.0451 86.4148 37.7209C85.694 38.3966 85.2496 39.3165 85.1678 40.3021C85.0859 41.2877 85.3726 42.2686 85.972 43.0544C86.5715 43.8401 87.4409 44.3746 88.4116 44.5542C89.3824 44.7337 90.385 44.5454 91.225 44.0259C92.0649 43.5064 92.6822 42.6927 92.957 41.7428C93.2317 40.7928 93.1444 39.7745 92.7119 38.8855C92.2794 37.9965 91.5326 37.3002 90.6165 36.9319C90.1248 36.7335 89.5983 36.6361 89.0683 36.6455ZM89.083 43.1025C87.7144 43.1025 86.7557 42.0421 86.754 40.6676C86.7524 39.2931 87.698 38.2246 89.0715 38.2131C90.4451 38.2017 91.3842 39.2751 91.3874 40.6496C91.3907 42.0241 90.4385 43.091 89.0879 43.0943L89.083 43.1025Z" fill="#485B60"/>
<path d="M96.0094 36.7764H94.3157L94.3369 44.4999H96.029L96.0094 36.7764Z" fill="#485B60"/>
<path d="M96.0094 33.7983H94.3157V35.3659H96.0094V33.7983Z" fill="#485B60"/>
<path d="M101.409 38.1902C101.854 38.1871 102.29 38.3133 102.665 38.5535C103.039 38.7936 103.337 39.1375 103.52 39.5435L104.99 38.7384C104.646 38.0858 104.128 37.5416 103.494 37.1661C102.86 36.7906 102.134 36.5985 101.397 36.6112C99.0944 36.6144 97.3469 38.3538 97.3469 40.6431C97.3469 42.9323 99.1189 44.6537 101.43 44.6504C102.166 44.6607 102.891 44.4659 103.523 44.0877C104.156 43.7095 104.671 43.1628 105.012 42.5085L103.532 41.7034C103.351 42.1109 103.055 42.4568 102.682 42.6991C102.308 42.9413 101.872 43.0696 101.427 43.0681C100.058 43.0681 99.0846 42.0078 99.0814 40.6332C99.0781 39.2587 100.047 38.1902 101.417 38.1788" fill="#485B60"/>
<path d="M109.906 36.5915C107.566 36.5915 105.885 38.3489 105.898 40.6202C105.898 42.9617 107.587 44.6324 109.923 44.6275C111.531 44.6275 112.74 43.9239 113.427 42.8276L112.14 41.9047C111.742 42.5838 111.015 43.0812 109.942 43.0845C108.665 43.0845 107.646 42.2549 107.566 40.9883L113.609 40.9736C113.623 40.7282 113.623 40.5874 113.623 40.4173C113.623 37.9333 111.92 36.5932 109.905 36.5964L109.906 36.5915ZM107.636 39.7496C107.865 38.6042 108.861 38.0299 109.849 38.0299C110.837 38.0299 111.727 38.6271 111.915 39.7382L107.636 39.7496Z" fill="#485B60"/>
<path d="M134.99 36.531H134.93C134.404 36.5268 133.881 36.6276 133.394 36.8275C132.907 37.0274 132.464 37.3224 132.091 37.6953C131.719 38.0682 131.424 38.5116 131.224 38.9997C131.024 39.4877 130.923 40.0108 130.927 40.5383V40.5596C130.924 41.0884 131.026 41.6126 131.227 42.1015C131.428 42.5904 131.725 43.0342 132.099 43.407C132.473 43.7798 132.918 44.0741 133.407 44.2727C133.896 44.4713 134.42 44.5702 134.948 44.5637H134.977C135.505 44.571 136.028 44.4726 136.517 44.2742C137.006 44.0758 137.45 43.7814 137.824 43.4085C138.198 43.0359 138.493 42.5925 138.694 42.1043C138.895 41.616 138.997 41.0926 138.993 40.5645V40.5383C138.997 40.0116 138.895 39.4894 138.695 39.0023C138.495 38.5152 138.2 38.0728 137.827 37.7009C137.455 37.3284 137.013 37.0337 136.526 36.8339C136.04 36.6342 135.518 36.5334 134.992 36.5375L134.99 36.531ZM134.971 42.9945C133.601 42.9945 132.645 41.9341 132.642 40.5612C132.639 39.1884 133.591 38.1166 134.958 38.1068C136.325 38.0969 137.27 39.1687 137.274 40.5432C137.277 41.9178 136.325 42.9846 134.971 42.9879V42.9945Z" fill="#485B60"/>
<path d="M127.995 36.7028V37.4129C127.455 36.8582 126.653 36.5522 125.73 36.5539C123.499 36.5539 121.886 38.2753 121.869 40.4418C121.859 40.9544 121.952 41.4638 122.142 41.9395C122.333 42.4153 122.618 42.8474 122.98 43.2101C123.341 43.5728 123.772 43.8585 124.247 44.05C124.722 44.2416 125.23 44.335 125.742 44.3248C126.668 44.3248 127.466 43.9975 128.004 43.4232V44.3379C128.004 45.5406 127.35 46.1837 126.465 46.38C124.26 46.776 122.89 46.11 122.89 46.11L122.35 47.4976C123.137 47.9885 125.578 48.1292 126.712 47.8789C128.345 47.5909 129.704 46.5207 129.699 44.3526L129.684 36.7011L127.995 36.7028ZM128.007 41.6772C127.788 42.0231 127.483 42.3054 127.121 42.4958C126.759 42.6862 126.354 42.778 125.946 42.7621C124.608 42.7621 123.635 41.7639 123.619 40.4369C123.61 40.1283 123.666 39.8213 123.782 39.5353C123.895 39.2486 124.065 38.9881 124.282 38.7695C124.498 38.5508 124.757 38.3786 125.042 38.2633C125.328 38.148 125.633 38.0919 125.941 38.0986C126.347 38.0824 126.75 38.1715 127.112 38.3573C127.474 38.543 127.781 38.8191 128.005 39.1589L128.007 41.6772Z" fill="#485B60"/>
<path d="M116.772 42.9945L119.082 39.8527C119.547 39.2424 120.29 38.2164 120.429 37.9922C121.072 36.927 121.151 35.8077 120.592 34.6901C120.137 33.7803 119.331 33.3369 118.34 33.2174C116.95 33.0407 115.505 33.6854 114.852 35.0043C114.7 35.2914 114.6 35.6034 114.558 35.9255L116.039 36.2528C116.062 36.189 116.083 36.1366 116.098 36.0892C116.168 35.8196 116.298 35.5692 116.478 35.3565C116.657 35.1439 116.883 34.9743 117.136 34.8603C117.677 34.6132 118.453 34.7098 118.871 35.0714C119.571 35.6817 119.562 36.7077 119.054 37.3622C118.969 37.4735 114.585 43.0697 114.585 43.0697C114.544 43.1186 114.522 43.1809 114.523 43.2448V44.4835L121.028 44.4672V42.9945H116.772Z" fill="#485B60"/>
</svg>
