<svg width="40" height="40" viewBox="0 0 40 40" fill="none" xmlns="http://www.w3.org/2000/svg">
<path d="M40 0H0V40H40V0Z" fill="#ECE8D9"/>
<path d="M20 6L20.8509 15.1744L24.7883 6.8443L22.45 15.7565L28.999 9.27538L23.7536 16.8503L32.1244 13L24.6045 18.3241L33.7873 17.5689L24.9 20L33.7873 22.4311L24.6045 21.6759L32.1244 27L23.7536 23.1497L28.999 30.7246L22.45 24.2435L24.7883 33.1557L20.8509 24.8256L20 34L19.1491 24.8256L15.2117 33.1557L17.55 24.2435L11.001 30.7246L16.2464 23.1497L7.87564 27L15.3955 21.6759L6.21269 22.4311L15.1 20L6.21269 17.5689L15.3955 18.3241L7.87564 13L16.2464 16.8503L11.001 9.27538L17.55 15.7565L15.2117 6.8443L19.1491 15.1744L20 6Z" fill="#1C3F3A"/>
</svg>
