<svg width="180" height="80" viewBox="0 0 180 80" fill="none" xmlns="http://www.w3.org/2000/svg">
<path d="M180 0H0V80H180V0Z" fill="white"/>
<path d="M34.1276 34.3335C34.3918 33.8735 35.0046 33.9961 35.4118 34.1832C38.3656 35.4089 41.3085 36.6663 44.2473 37.9249C44.9963 38.1332 44.6558 39.0096 44.6558 39.5566C43.0352 39.5737 41.4133 39.5566 39.7914 39.5697C39.3434 39.5513 38.8109 39.6462 38.4732 39.2837C37.1399 38.058 35.853 36.7796 34.5498 35.5289C34.2433 35.2231 33.7939 34.7724 34.133 34.3335H34.1276ZM53.4341 34.8317C54.1477 34.5536 54.83 34.1727 55.5871 34.0132C56.061 33.9157 56.268 34.3928 56.4995 34.6867C55.4972 36.122 54.0564 37.1908 52.8363 38.4482C52.3065 38.9028 51.8408 39.6567 51.0318 39.5684C49.2819 39.5684 47.532 39.5579 45.7793 39.5684C45.6676 39.061 45.3898 38.2597 46.0381 37.9869C48.4893 36.9167 50.9665 35.8781 53.4341 34.8356V34.8317ZM67.9307 35.0465C68.0668 34.7249 68.4441 34.8462 68.7178 34.8132C71.1228 34.8277 73.5264 34.8132 75.9354 34.8225C77.4334 34.8462 78.8061 36.0086 78.9982 37.4491C79.2909 39.1084 77.8815 40.8297 76.1383 40.9048C74.0847 40.947 72.0284 40.8771 69.9761 40.9312C69.5757 41.9856 70.0387 43.2257 69.7419 44.3302C69.2067 44.7256 68.5952 45.1276 67.8952 45.1566C67.8952 43.3285 67.9143 41.4992 67.9048 39.6712C67.8803 39.4195 67.9415 38.9951 68.3133 39.0636C70.7959 39.032 73.2812 39.0781 75.7638 39.0491C76.3739 39.0821 77.029 38.6366 77.0494 38.0159C77.1856 37.2923 76.5047 36.6531 75.7747 36.6781C73.1873 36.632 70.5998 36.7216 68.026 36.6399C67.8272 36.1365 67.8898 35.5737 67.9361 35.0465H67.9307ZM90.0697 45.1473C90.0575 41.7048 90.0166 38.2597 90.0915 34.8185C93.8052 34.8317 97.523 34.7908 101.237 34.8383C101.036 35.4801 100.783 36.2155 100.223 36.6281C97.4848 36.7256 94.7312 36.6452 91.9872 36.665C91.9722 37.4557 91.9736 38.2623 91.9776 39.0623C94.6577 39.0544 97.3387 39.0544 100.021 39.0623C100.059 39.6752 100.06 40.292 100.04 40.9075C97.3514 40.9338 94.6659 40.9075 91.9776 40.9206C91.9776 41.7114 91.9776 42.5022 91.9776 43.293C94.5651 43.2837 97.143 43.293 99.725 43.293C100.678 43.2376 100.839 44.3921 101.301 44.9747C101.055 45.1178 100.77 45.1879 100.484 45.1763C97.0123 45.1618 93.5383 45.1948 90.0684 45.1592L90.0697 45.1473ZM112.254 34.8949C112.526 34.6208 112.788 35.0188 113.031 35.1243C115.925 37.2831 118.835 39.4182 121.722 41.5823C121.765 39.6594 121.668 37.7325 121.765 35.8149C122.198 35.2719 122.907 35.0096 123.553 34.7697C123.698 35.1651 123.669 35.5895 123.673 36.002C123.645 38.9542 123.692 41.9104 123.651 44.8627C123.756 45.3279 123.176 45.1869 122.97 44.972C120.022 42.7856 117.085 40.5819 114.129 38.406C114.092 40.3421 114.194 42.2847 114.085 44.2169C113.658 44.744 112.91 45.0722 112.216 45.1842C112.186 42.1213 112.216 39.0584 112.197 35.9941C112.184 35.6259 112.203 35.2574 112.254 34.8923V34.8949ZM134.792 38.7737C135.328 36.4976 137.629 34.7618 140.042 34.8264C141.948 34.8633 143.848 34.7552 145.745 34.8791C145.726 35.5473 145.289 36.1272 144.872 36.6307C143.143 36.7809 141.393 36.5793 139.662 36.7203C138.243 36.889 136.978 37.9447 136.666 39.3022C136.159 41.1473 137.727 43.1743 139.682 43.2824C141.153 43.3088 142.625 43.2824 144.097 43.2824C144.097 42.4916 144.097 41.7088 144.097 40.922C142.998 40.9061 141.896 40.9483 140.797 40.9114C140.325 40.9615 140.167 40.4304 139.948 40.1299C139.812 39.8043 139.452 39.4709 139.634 39.0992C141.421 39.0056 143.216 39.0992 145.007 39.0557C145.331 39.0979 145.753 38.9542 145.994 39.2416C146.045 41.2 145.994 43.1625 146.012 45.1223C144.662 45.2132 143.309 45.1526 141.959 45.1671C140.554 45.1473 139.064 45.3292 137.766 44.6795C135.497 43.7226 134.137 41.0946 134.799 38.7711L134.792 38.7737ZM38.4323 40.7256C38.7809 40.3539 39.3297 40.4514 39.7941 40.433C41.4283 40.458 43.0543 40.4119 44.683 40.4633C44.698 40.9655 44.9799 41.7562 44.3521 42.0106C41.8028 43.119 39.2399 44.1958 36.6783 45.2804C36.0096 45.544 35.36 45.9078 34.6355 46C34.2706 45.8933 33.9451 45.5572 34.0186 45.1631C34.2461 44.665 34.6887 44.3065 35.0741 43.9229C36.2057 42.8686 37.2788 41.7523 38.4391 40.7256H38.4323ZM45.7357 40.462C47.4339 40.4304 49.1403 40.462 50.833 40.4409C51.1871 40.4673 51.6133 40.3948 51.8871 40.6676C53.1331 41.7944 54.322 42.978 55.5381 44.1338C55.8513 44.4607 56.219 44.7638 56.3892 45.1882C56.4873 45.7602 55.7628 46.2056 55.2521 45.8999C52.1785 44.6742 49.1484 43.3404 46.1089 42.0396C45.4103 41.8076 45.6649 40.9918 45.7357 40.4646" fill="#485B60"/>
</svg>
