<svg width="180" height="80" viewBox="0 0 180 80" fill="none" xmlns="http://www.w3.org/2000/svg">
<path d="M180 0H0V80H180V0Z" fill="white"/>
<path d="M41.3373 38.0802C41.3373 36.09 40.007 34.2821 37.485 34.2675C35.788 34.2675 30.697 34.2507 29 34.2507V45.7708H31.0188V41.9265H36.3595L39.4804 45.7708H41.8796V45.624L38.6377 41.6959C40.6722 41.2512 41.3451 39.6573 41.3451 38.0802H41.3373ZM31.0266 39.9677V36.2871H37.4928C38.7606 36.2871 39.3263 37.2078 39.3263 38.1285C39.3263 39.0491 38.7762 39.9698 37.4928 39.9698L31.0266 39.9677Z" fill="#485B60"/>
<path d="M55.3229 34.2549C53.6415 34.2549 48.5661 34.2717 46.8847 34.2717V45.775H48.9016V42.3858H55.3229C60.566 42.3858 60.5504 34.2507 55.3229 34.2507V34.2549ZM55.3229 40.3977H48.9016V36.3207H55.3229C57.8898 36.3207 57.9054 40.3977 55.3229 40.3977Z" fill="#485B60"/>
<path d="M92.1983 39.823C93.1912 39.3448 93.5891 38.4912 93.5891 37.602C93.5891 35.295 92.015 34.2674 89.9045 34.2674H81.4351V45.7707H89.9045C92.1203 45.7707 93.909 44.9507 93.909 42.3858C93.909 41.6622 93.4506 40.2319 92.1983 39.823ZM83.4208 36.2388H89.9025C91.1879 36.2388 91.5839 37.1259 91.5839 37.6523C91.5839 38.3088 91.1723 38.8855 89.9025 38.8855H83.4228L83.4208 36.2388ZM89.9025 43.7511H83.4228V40.7919H89.9045C90.7296 40.7919 91.9077 41.333 91.9077 42.369C91.9077 43.4533 90.7374 43.7511 89.9045 43.7511" fill="#485B60"/>
<path d="M100.755 34.2674H98.7366V45.7728H109.652V43.7658H100.755V34.2674Z" fill="#485B60"/>
<path d="M116.499 34.2674H114.495V45.7728H116.499V34.2674Z" fill="#485B60"/>
<path d="M131.625 42.5934C131.336 42.9022 131.008 43.1649 130.65 43.3736C130.247 43.6035 129.819 43.7782 129.376 43.8937C128.873 44.0234 128.357 44.0868 127.839 44.0825C127.16 44.0945 126.484 43.9839 125.84 43.7553C125.307 43.5624 124.814 43.2596 124.389 42.864C124.007 42.5016 123.705 42.0534 123.503 41.5511C123.306 41.0611 123.204 40.533 123.205 39.9992C123.203 39.4598 123.305 38.926 123.503 38.4304C123.705 37.9282 124.007 37.4799 124.389 37.1176C124.814 36.7219 125.309 36.4217 125.844 36.2346C126.489 36.0108 127.163 35.9031 127.841 35.9158C128.334 35.9134 128.827 35.9711 129.308 36.0878C129.735 36.1909 130.15 36.3457 130.545 36.5492C130.9 36.7333 131.229 36.9729 131.52 37.2602C131.695 37.4368 131.854 37.6313 131.994 37.8411L133.695 36.8302C133.479 36.4949 133.231 36.1855 132.953 35.9075C132.56 35.5125 132.12 35.1754 131.645 34.905C131.116 34.6068 130.553 34.3827 129.971 34.2381C129.307 34.0752 128.627 33.9957 127.946 34.0011C126.969 33.985 125.996 34.151 125.071 34.4918C124.294 34.7795 123.576 35.2245 122.955 35.8026C122.4 36.3267 121.956 36.9719 121.652 37.6952C121.348 38.4185 121.19 39.2032 121.19 39.9971C121.19 40.7909 121.348 41.5756 121.652 42.2989C121.956 43.0222 122.4 43.6674 122.955 44.1915C123.575 44.7706 124.294 45.2156 125.071 45.5023C125.992 45.8438 126.961 46.0119 127.935 45.9993C128.637 46.0055 129.338 45.9203 130.022 45.7456C130.617 45.591 131.191 45.3534 131.728 45.0388C132.213 44.7574 132.658 44.4044 133.051 43.9902C133.336 43.6863 133.588 43.3478 133.8 42.9814L132.091 41.9747C131.958 42.2023 131.802 42.4133 131.625 42.6039" fill="#485B60"/>
<path d="M72.9033 34.2549C72.6764 34.2546 72.4517 34.3024 72.2421 34.3955C72.0324 34.4887 71.8419 34.6254 71.6814 34.7977C71.5208 34.9701 71.3935 35.1748 71.3066 35.4001C71.2198 35.6255 71.1751 35.867 71.1751 36.1109H74.3954V40.081C74.3356 40.6085 74.2271 41.1284 74.0716 41.6329C73.8697 42.1352 73.5674 42.5834 73.1861 42.9458C72.7604 43.3419 72.2667 43.6447 71.7329 43.8371C70.6679 44.2907 69.482 44.2907 68.417 43.8371C67.8832 43.6447 67.3895 43.3419 66.9638 42.9458C66.5825 42.5834 66.2801 42.1352 66.0782 41.6329C65.9228 41.1284 65.8143 40.6085 65.7544 40.081V34.2549H63.761V40.081C63.7563 40.8747 63.9106 41.6601 64.2136 42.3839C64.5165 43.1077 64.9609 43.7528 65.5165 44.2754C66.1381 44.8524 66.8573 45.2953 67.6348 45.5799C69.2195 46.1331 70.9264 46.1331 72.5112 45.5799C73.2884 45.2932 74.007 44.8482 74.6276 44.2691C75.1832 43.7465 75.6275 43.1014 75.9305 42.3776C76.2334 41.6538 76.3878 40.8684 76.3831 40.0747V34.2549H72.9033Z" fill="#485B60"/>
<path d="M143.502 36.1612L138.789 45.7707H136.782L142.384 34.3387V34.2674H145.361L151 45.7707H148.993L147.795 43.3379H144.204C143.971 43.3379 143.74 43.2885 143.524 43.1925C143.309 43.0965 143.113 42.9557 142.948 42.7783C142.783 42.6009 142.652 42.3903 142.563 42.1585C142.473 41.9267 142.427 41.6782 142.427 41.4273H146.855L144.267 36.1612H143.502Z" fill="#485B60"/>
</svg>
