<svg width="128" height="128" viewBox="0 0 128 128" fill="none" xmlns="http://www.w3.org/2000/svg">
<path d="M64 0L69.5568 32.4862L85.8892 3.85967L80 36.2872L105.139 14.9731L88.5134 43.4308L119.426 32L94.0702 53.0554L127.028 52.8865L96 64L127.028 75.1135L94.0702 74.9446L119.426 96L88.5134 84.5692L105.139 113.027L80 91.7128L85.8892 124.14L69.5568 95.5138L64 128L58.4433 95.5138L42.1108 124.14L48 91.7128L22.8616 113.027L39.4866 84.5692L8.57437 96L33.9298 74.9446L0.972305 75.1135L32 64L0.972305 52.8865L33.9298 53.0554L8.57437 32L39.4866 43.4308L22.8616 14.9731L48 36.2872L42.1108 3.85967L58.4433 32.4862L64 0Z" fill="#ECE8D9"/>
</svg>
