<svg width="180" height="80" viewBox="0 0 180 80" fill="none" xmlns="http://www.w3.org/2000/svg">
<path d="M180 0H0V80H180V0Z" fill="white"/>
<path d="M71.6694 35.3334L67.3665 32.3914C66.9998 32.1411 66.561 32.0067 66.1111 32.0067C65.6611 32.0067 65.2223 32.1411 64.8556 32.3914L63.4547 33.3482L61.9317 34.3865L60.5527 35.3334C60.2719 35.5259 60.0429 35.7798 59.8847 36.0742C59.7266 36.3685 59.6438 36.6948 59.6432 37.026V42.9877C59.6434 43.0646 59.6249 43.1405 59.5892 43.2093C59.5535 43.2781 59.5015 43.3379 59.4374 43.384L57.944 44.3717L59.3744 45.347L60.3829 44.6791C60.6638 44.487 60.8928 44.2333 61.051 43.9391C61.2092 43.6449 61.2919 43.3188 61.2924 42.9877V37.026C61.2925 36.9469 61.3122 36.869 61.3498 36.7987C61.3873 36.7283 61.4417 36.6674 61.5085 36.6211L65.8113 33.6803C65.8987 33.6202 66.0035 33.5879 66.1111 33.5879C66.2186 33.5879 66.3234 33.6202 66.4108 33.6803L67.5338 34.447L68.9629 35.4223L70.7149 36.6198C70.7824 36.6656 70.8373 36.7263 70.8752 36.7968C70.913 36.8673 70.9326 36.9455 70.9323 37.0248V42.9877C70.9324 43.0668 70.9127 43.1448 70.8749 43.215C70.8371 43.2853 70.7822 43.3458 70.7149 43.3914L66.4108 46.3211C66.3162 46.3836 66.2031 46.4151 66.0883 46.4108C65.9736 46.4066 65.8633 46.3669 65.774 46.2976L64.9546 45.8038L63.5126 46.8026L64.8556 47.6149C65.2222 47.8654 65.661 48 66.1111 48C66.5611 48 66.9999 47.8654 67.3665 47.6149L71.6694 44.6742C71.9496 44.4825 72.1782 44.2296 72.3363 43.9364C72.4945 43.6431 72.5776 43.3179 72.5789 42.9877V37.026C72.5787 36.6948 72.4961 36.3683 72.3379 36.0739C72.1797 35.7795 71.9505 35.5256 71.6694 35.3334Z" fill="#485B60"/>
<path d="M64.6446 45.6176L66.0262 44.6731C66.3062 44.4813 66.5347 44.2284 66.6928 43.9352C66.8509 43.642 66.9341 43.3169 66.9356 42.9867V37.025C66.9354 36.9478 66.954 36.8716 66.9899 36.8026C67.0259 36.7335 67.0782 36.6736 67.1427 36.6274L68.6323 35.6398L67.2032 34.6645L66.196 35.3311C65.9152 35.5236 65.6864 35.7776 65.5284 36.0719C65.3705 36.3663 65.288 36.6926 65.2878 37.0237V42.9867C65.2879 43.0658 65.2682 43.1437 65.2303 43.214C65.1925 43.2842 65.1377 43.3447 65.0704 43.3904L60.7675 46.32C60.6801 46.3801 60.5753 46.4125 60.4678 46.4125C60.3603 46.4125 60.2555 46.3801 60.1681 46.32L59.0451 45.5534L57.6185 44.5818L55.8665 43.3842C55.8001 43.3392 55.7458 43.2796 55.708 43.2105C55.6702 43.1414 55.65 43.0647 55.6491 42.9867V37.025C55.6487 36.9458 55.6681 36.8677 55.7057 36.7972C55.7433 36.7267 55.798 36.666 55.8652 36.62L60.1681 33.6793C60.2635 33.6159 60.3778 33.5839 60.4937 33.5881C60.6097 33.5924 60.7211 33.6326 60.8113 33.7027L61.6062 34.1855L63.0662 33.1978L61.7284 32.3879C61.3618 32.1375 60.923 32.0029 60.473 32.0029C60.0229 32.0029 59.5841 32.1375 59.2175 32.3879L54.9095 35.3324C54.6283 35.5246 54.3991 35.7784 54.2409 36.0729C54.0827 36.3673 54.0001 36.6937 54 37.025V42.9867C54.0002 43.3179 54.0829 43.6443 54.2411 43.9387C54.3993 44.2331 54.6284 44.487 54.9095 44.6793L59.2123 47.62C59.5789 47.8705 60.0178 48.0051 60.4678 48.0051C60.9178 48.0051 61.3567 47.8705 61.7233 47.62L63.1936 46.6151L64.6433 45.6274L64.6446 45.6176Z" fill="#485B60"/>
<path d="M82.5109 33.8802H79.3027V35.7038C79.3028 35.9096 79.2192 36.1071 79.0698 36.2547C78.9204 36.4023 78.7169 36.4881 78.5026 36.4939L77.6484 36.5149V38.9482H79.3027V43.3162C79.3027 46.0766 80.4411 46.9704 85.2007 46.6728V44.1667C82.7797 44.4049 82.5932 43.7691 82.5932 42.9951V38.9445H85.2007V36.4618H82.5109V33.8802Z" fill="#485B60"/>
<path d="M95.4194 32.221C94.2617 32.221 93.6262 32.4679 93.6262 33.7803C93.6262 35.0926 94.2591 35.3395 95.4194 35.3395C96.5604 35.3395 97.156 35.0605 97.156 33.7803C97.156 32.463 96.5604 32.221 95.4194 32.221Z" fill="#485B60"/>
<path d="M97.0363 36.4617H93.787V46.5901H97.0363V36.4617Z" fill="#485B60"/>
<path d="M105.395 36.2827C103.76 36.2827 102.726 36.8185 102.229 37.4346V32.5494H99.0225V46.5901C99.0585 46.5901 99.0932 46.5901 99.1292 46.5827H99.2733C99.6324 46.5825 99.9839 46.4837 100.286 46.298C100.589 46.1123 100.83 45.8474 100.98 45.5346V45.5272C101.006 45.4741 101.046 45.4283 101.096 45.3941C101.146 45.3598 101.204 45.3383 101.264 45.3315C101.325 45.3247 101.387 45.3329 101.443 45.3552C101.5 45.3776 101.549 45.4134 101.587 45.4593C102.202 46.1741 103.059 46.6012 104.276 46.7173C104.529 46.7509 104.784 46.7682 105.039 46.7691C106.88 46.7691 108.05 46.0222 108.751 44.942C108.79 44.8839 108.828 44.8185 108.864 44.7642L108.936 44.6333C108.989 44.537 109.038 44.4395 109.084 44.3383L109.117 44.2642C109.171 44.1407 109.218 44.0173 109.263 43.8938C109.263 43.8802 109.272 43.8667 109.276 43.8531C109.321 43.721 109.362 43.5864 109.397 43.4494C109.397 43.4321 109.406 43.4173 109.41 43.4012C109.438 43.2864 109.464 43.1704 109.486 43.0518C109.495 43.0049 109.505 42.958 109.514 42.9111C109.523 42.8642 109.524 42.837 109.531 42.8C109.6 42.3719 109.636 41.9394 109.637 41.5062C109.637 38.9037 108.665 36.2827 105.395 36.2827ZM104.299 44.2062C102.498 44.2062 102.209 43.1148 102.209 41.5062C102.209 39.9568 102.436 38.8247 104.279 38.8247C106.037 38.8247 106.326 39.9358 106.326 41.5062C106.326 43.0938 106.037 44.2062 104.299 44.2062Z" fill="#485B60"/>
<path d="M115.762 36.2827C111.913 36.2827 111.002 37.7716 111.002 39.937H114.147C114.147 39.1222 114.519 38.5272 115.844 38.5272C117.251 38.5272 117.707 39.1444 117.707 40.3136L114.933 40.5914C111.975 40.8901 110.588 41.7025 110.588 43.6506C110.588 45.7753 112.492 46.7691 114.975 46.7691C116.581 46.7691 117.645 46.321 118.373 45.4741C118.411 45.4279 118.461 45.3919 118.518 45.3693C118.574 45.3468 118.636 45.3385 118.697 45.3454C118.758 45.3522 118.816 45.3738 118.866 45.4082C118.916 45.4426 118.956 45.4887 118.982 45.542C119.132 45.8548 119.373 46.1197 119.676 46.3054C119.978 46.4911 120.33 46.5899 120.689 46.5901H120.934V40.8506C120.932 38.2284 120.264 36.2827 115.762 36.2827ZM115.633 44.5839C114.454 44.5839 113.961 44.1469 113.961 43.5309C113.961 43.0543 114.355 42.6975 115.633 42.5778L117.703 42.3395C117.684 43.5914 117.083 44.5839 115.633 44.5839Z" fill="#485B60"/>
<path d="M126 32.5494H122.773V46.5901H126V32.5494Z" fill="#485B60"/>
<path d="M92.6834 36.2667C92.5792 36.2667 92.4827 36.2741 92.3824 36.2778C91.5605 36.2304 90.7456 36.4477 90.0669 36.8951C89.7736 37.0764 89.5111 37.3 89.2887 37.558C89.2503 37.6038 89.2004 37.6395 89.1437 37.6618C89.087 37.684 89.0253 37.692 88.9645 37.6851C88.9037 37.6782 88.8457 37.6566 88.796 37.6222C88.7462 37.5879 88.7064 37.542 88.6802 37.4889C88.5284 37.1756 88.2862 36.9107 87.9823 36.7256C87.6783 36.5405 87.3255 36.4429 86.9655 36.4444H86.7198V36.4679H86.7108V46.5914H89.9383V41.4062C89.9383 40.0556 90.3113 38.7654 92.7323 39.0037V36.3025H92.6885C92.6873 36.2802 92.686 36.2667 92.6834 36.2667Z" fill="#485B60"/>
</svg>
