<svg width="180" height="80" viewBox="0 0 180 80" fill="none" xmlns="http://www.w3.org/2000/svg">
<path d="M180 0H0V80H180V0Z" fill="white"/>
<path d="M42.7617 45.8148L38 34.1852H40.4392L43.9247 42.8611L47.4308 34.1852H49.87L45.0843 45.8148H42.7617Z" fill="#485B60"/>
<path d="M51.9696 38.9778H59.1225C58.9153 38.1923 58.4543 37.4939 57.8086 36.9874C57.1782 36.4777 56.385 36.2022 55.5684 36.2094C54.7304 36.1887 53.9122 36.4608 53.2596 36.9773C52.6202 37.4893 52.1675 38.1914 51.9696 38.9778ZM51.2526 44.2588C50.6808 43.7078 50.2292 43.0484 49.9255 42.3205C49.6217 41.5927 49.4721 40.8117 49.4858 40.0253C49.4727 39.2375 49.62 38.455 49.9193 37.7239C50.2186 36.9929 50.6638 36.3279 51.2286 35.7682C51.776 35.1961 52.4396 34.7431 53.1765 34.4386C53.9134 34.134 54.7072 33.9846 55.5066 34C57.0678 33.9824 58.5766 34.5524 59.7229 35.593C60.3178 36.1242 60.793 36.7716 61.1179 37.4937C61.4429 38.2159 61.6104 38.9967 61.6097 39.7861C61.6117 40.1353 61.5888 40.4842 61.5411 40.8302H51.9696C52.0052 41.2403 52.1229 41.6394 52.316 42.0046C52.5091 42.3699 52.7738 42.6942 53.0949 42.9588C53.7644 43.515 54.6196 43.8089 55.4963 43.7839C56.0271 43.8027 56.5558 43.7086 57.0461 43.508C57.5364 43.3074 57.9767 43.0052 58.3369 42.622L61.1089 42.6455C60.5935 43.6464 59.8064 44.488 58.8344 45.0772C57.8571 45.6856 56.7221 46.0048 55.565 45.9966C54.7633 46.0118 53.967 45.8655 53.2253 45.5665C52.4836 45.2676 51.8122 44.8225 51.2526 44.2588Z" fill="#485B60"/>
<path d="M63.1843 45.8148V39.7524C63.1843 37.8911 63.6417 36.4912 64.5566 35.5526C65.024 35.0818 65.5874 34.713 66.2099 34.4704C66.8323 34.2278 67.4999 34.1169 68.1691 34.1448H68.4058V36.3576H68.1691C66.3988 36.3576 65.5149 37.4892 65.5172 39.7524V45.8148H63.1843Z" fill="#485B60"/>
<path d="M75.3426 36.2094C74.8327 36.1936 74.325 36.2828 73.8523 36.4713C73.3796 36.6599 72.9524 36.9435 72.5981 37.304C71.8934 38.0304 71.5003 38.9951 71.5003 39.9983C71.5003 41.0015 71.8934 41.9662 72.5981 42.6927C72.9474 43.0518 73.3691 43.3355 73.8364 43.5257C74.3036 43.7159 74.8061 43.8084 75.3118 43.7974C75.8123 43.8097 76.3099 43.719 76.7726 43.531C77.2352 43.3431 77.6526 43.0621 77.9979 42.7062C78.6905 41.9736 79.0753 41.0112 79.0753 40.0118C79.0753 39.0124 78.6905 38.0499 77.9979 37.3174C77.6533 36.9604 77.2361 36.6784 76.7734 36.4898C76.3106 36.3013 75.8126 36.2103 75.3118 36.2229L75.3426 36.2094ZM70.9926 35.7446C71.9931 34.7595 73.3107 34.1456 74.7207 34.0074C76.1308 33.8692 77.546 34.2154 78.7251 34.9869C79.9042 35.7585 80.7744 36.9076 81.1871 38.2384C81.5998 39.5692 81.5297 40.9994 80.9886 42.2851C80.4475 43.5708 79.4689 44.6325 78.2197 45.2892C76.9705 45.9459 75.528 46.157 74.138 45.8865C72.748 45.6159 71.4966 44.8805 70.5971 43.8056C69.6976 42.7306 69.2057 41.3827 69.2052 39.9916C69.1925 39.2014 69.3445 38.4171 69.6519 37.6868C69.9592 36.9564 70.4155 36.2955 70.9926 35.7446Z" fill="#485B60"/>
<path d="M93.4529 45.8148H90.801L87.7443 41.652L84.6876 45.8148H82.0117L86.4167 39.7693L82.3651 34.1852H84.9964L87.7203 37.9068L90.4923 34.1852H93.1236L89.072 39.7693L93.4529 45.8148Z" fill="#485B60"/>
<path d="M96.146 45.7777V41.8877H94.0225V40.5406H96.146V40.1263L96.1941 38.7084C96.3221 37.2961 96.7727 36.1869 97.5457 35.3809C98.3635 34.5567 99.4637 34.0598 100.633 33.9865V35.4078C99.8582 35.5247 99.1455 35.8935 98.6092 36.4552C98.0513 37.0829 97.7292 37.8793 97.6967 38.7118L97.6487 40.1297V40.5439H101.385V41.8911H97.6624V45.7811L96.146 45.7777Z" fill="#485B60"/>
<path d="M105.306 34.1886H103.79V45.8181H105.306V34.1886Z" fill="#485B60"/>
<path d="M117.22 36.755C116.801 36.3237 116.294 35.983 115.733 35.7546C115.172 35.5261 114.569 35.4149 113.961 35.428C113.351 35.4172 112.745 35.5294 112.181 35.7576C111.617 35.9859 111.107 36.3253 110.682 36.755C109.82 37.6255 109.339 38.7914 109.339 40.005C109.339 41.2187 109.82 42.3846 110.682 43.2551C111.103 43.6882 111.611 44.0313 112.173 44.2631C112.736 44.4949 113.341 44.6103 113.951 44.6023C114.556 44.6136 115.157 44.5019 115.717 44.2741C116.276 44.0463 116.781 43.7074 117.2 43.2787C118.047 42.3983 118.519 41.2331 118.519 40.0219C118.519 38.8107 118.047 37.6454 117.2 36.7651L117.22 36.755ZM109.615 35.7446C110.615 34.7595 111.933 34.1456 113.343 34.0074C114.753 33.8692 116.168 34.2154 117.347 34.9869C118.526 35.7585 119.397 36.9076 119.809 38.2384C120.222 39.5692 120.152 40.9994 119.611 42.2851C119.07 43.5708 118.091 44.6325 116.842 45.2892C115.593 45.9459 114.15 46.157 112.76 45.8865C111.37 45.6159 110.119 44.8805 109.219 43.8056C108.32 42.7306 107.828 41.3827 107.827 39.9916C107.815 39.2014 107.967 38.4171 108.274 37.6868C108.581 36.9564 109.038 36.2955 109.615 35.7446Z" fill="#485B60"/>
<path d="M131.928 36.755C131.508 36.3237 131.001 35.983 130.44 35.7546C129.879 35.5261 129.276 35.4149 128.668 35.428C128.058 35.4172 127.453 35.5294 126.888 35.7576C126.324 35.9859 125.814 36.3253 125.389 36.755C124.527 37.6255 124.046 38.7914 124.046 40.005C124.046 41.2187 124.527 42.3846 125.389 43.2551C125.81 43.6885 126.318 44.0318 126.88 44.2636C127.443 44.4955 128.048 44.6107 128.658 44.6023C129.263 44.614 129.864 44.5024 130.422 44.2745C130.981 44.0467 131.485 43.7076 131.904 43.2787C132.752 42.3987 133.224 41.2333 133.224 40.0219C133.224 38.8105 132.752 37.6451 131.904 36.7651L131.928 36.755ZM124.325 35.7446C125.326 34.7595 126.643 34.1456 128.053 34.0074C129.463 33.8692 130.879 34.2154 132.058 34.9869C133.237 35.7585 134.107 36.9076 134.52 38.2384C134.932 39.5692 134.862 40.9994 134.321 42.2851C133.78 43.5708 132.802 44.6325 131.552 45.2892C130.303 45.9459 128.861 46.157 127.471 45.8865C126.081 45.6159 124.829 44.8805 123.93 43.8056C123.03 42.7306 122.538 41.3827 122.538 39.9916C122.525 39.2014 122.677 38.417 122.984 37.6867C123.292 36.9563 123.748 36.2954 124.325 35.7446Z" fill="#485B60"/>
<path d="M136.549 45.8148V39.7861C136.549 37.9113 136.987 36.5001 137.863 35.5526C138.313 35.0782 138.862 34.7056 139.474 34.4608C140.085 34.2159 140.744 34.1046 141.403 34.1347C141.518 34.133 141.633 34.1397 141.746 34.1549V35.5762C141.633 35.5579 141.518 35.55 141.403 35.5526C140.94 35.5339 140.479 35.6208 140.055 35.8066C139.632 35.9925 139.259 36.2721 138.964 36.6236C138.365 37.3354 138.065 38.3896 138.065 39.7861V45.8148H136.549Z" fill="#485B60"/>
<path d="M140.449 44.5215H140.707C140.794 44.5304 140.882 44.5115 140.957 44.4676C140.979 44.4509 140.996 44.4293 141.007 44.4047C141.019 44.3801 141.024 44.3531 141.022 44.3261C141.023 44.2902 141.012 44.255 140.991 44.2251C140.969 44.1948 140.938 44.1715 140.902 44.1577C140.833 44.1408 140.761 44.134 140.689 44.1375H140.449V44.5215ZM140.237 45.2456V43.9624H140.689C140.805 43.9563 140.921 43.9676 141.033 43.9961C141.099 44.0199 141.157 44.0634 141.197 44.1207C141.237 44.1761 141.258 44.2418 141.259 44.3093C141.26 44.355 141.251 44.4003 141.233 44.4426C141.216 44.4849 141.189 44.5232 141.156 44.5552C141.082 44.6257 140.984 44.6665 140.882 44.6697C140.924 44.6857 140.962 44.7097 140.995 44.7404C141.068 44.8178 141.132 44.9024 141.187 44.993L141.348 45.2456H141.091L140.974 45.0435C140.92 44.9306 140.844 44.8289 140.751 44.7438C140.702 44.7105 140.643 44.695 140.583 44.7H140.449V45.2456H140.237ZM140.772 43.5886C140.597 43.5902 140.426 43.6354 140.274 43.7199C140.114 43.8031 139.981 43.9307 139.894 44.087C139.804 44.2383 139.756 44.4103 139.756 44.5855C139.757 44.759 139.803 44.9296 139.89 45.0806C139.977 45.2359 140.108 45.3633 140.267 45.4477C140.42 45.5359 140.594 45.5824 140.772 45.5824C140.949 45.5824 141.123 45.5359 141.276 45.4477C141.435 45.3633 141.566 45.2359 141.653 45.0806C141.738 44.9287 141.783 44.7586 141.784 44.5855C141.784 44.4108 141.738 44.239 141.65 44.087C141.561 43.9314 141.429 43.8041 141.269 43.7199C141.124 43.6387 140.96 43.5936 140.792 43.5886H140.772ZM140.772 43.3932C140.981 43.394 141.186 43.4461 141.369 43.5448C141.56 43.6464 141.719 43.7994 141.825 43.986C141.929 44.1693 141.985 44.3755 141.986 44.5855C141.987 44.7936 141.931 44.9981 141.825 45.1782C141.722 45.3661 141.566 45.5206 141.376 45.6228C141.191 45.7243 140.983 45.7776 140.772 45.7776C140.56 45.7776 140.352 45.7243 140.168 45.6228C139.982 45.5168 139.83 45.3616 139.729 45.1749C139.622 44.9936 139.566 44.788 139.566 44.5787C139.566 44.3695 139.622 44.1639 139.729 43.9826C139.835 43.7961 139.994 43.6431 140.185 43.5414C140.371 43.4422 140.58 43.3912 140.792 43.3932H140.772Z" fill="#485B60"/>
</svg>
